<?xml version="1.0" encoding="UTF-8"?>
<svg xmlns="http://www.w3.org/2000/svg" xmlns:xlink="http://www.w3.org/1999/xlink"
     width="360" height="504" viewBox="0 0 360 504">
<defs>
</defs>
<g>
<path d="M0,0 L0,504" stroke="orange" stroke-width="1" />
</g>
<g transform="scale(1,-1) translate(0,-504)">
<path d="M1.4818226269682975e-14,20.0 A242.0,242.0,0,0,1,1.4818226269682975e-14,504.0" stroke="blue" stroke-width="1" fill="none" />
<path d="M1.383850883036509e-14,52.0 A226.0,226.0,0,0,1,1.383850883036509e-14,504.0" stroke="blue" stroke-width="1" fill="none" />
<path d="M1.3532347130578253e-14,62.0 A221.0,221.0,0,0,1,1.3532347130578253e-14,504.0" stroke="blue" stroke-width="1" fill="none" />
<path d="M1.2522013521281686e-14,95.0 A204.5,204.5,0,0,1,1.2522013521281686e-14,504.0" stroke="blue" stroke-width="1" fill="none" />
<path d="M1.0838124172454076e-14,150.0 A177.0,177.0,0,0,1,1.0838124172454076e-14,504.0" stroke="blue" stroke-width="1" fill="none" />
<path d="M9.858406733136194e-15,182.0 A161.0,161.0,0,0,1,9.858406733136194e-15,504.0" stroke="blue" stroke-width="1" fill="none" />
<path d="M9.613477373306723e-15,190.0 A157.0,157.0,0,0,1,9.613477373306723e-15,504.0" stroke="blue" stroke-width="1" fill="none" />
<path d="M8.113285044351215e-15,239.0 A132.5,132.5,0,0,1,8.113285044351215e-15,504.0" stroke="blue" stroke-width="1" fill="none" />
<path d="M7.317264624905436e-15,265.0 A119.5,119.5,0,0,1,7.317264624905436e-15,504.0" stroke="blue" stroke-width="1" fill="none" />
<path d="M6.643708885374391e-15,287.0 A108.5,108.5,0,0,1,6.643708885374391e-15,504.0" stroke="blue" stroke-width="1" fill="none" />
<path d="M5.143516556418883e-15,336.0 A84.0,84.0,0,0,1,5.143516556418883e-15,504.0" stroke="blue" stroke-width="1" fill="none" />
<path d="M4.194415287079684e-15,367.0 A68.5,68.5,0,0,1,4.194415287079684e-15,504.0" stroke="blue" stroke-width="1" fill="none" />
<path d="M3.214697847761802e-15,399.0 A52.5,52.5,0,0,1,3.214697847761802e-15,504.0" stroke="blue" stroke-width="1" fill="none" />
<path d="M2.9697684879323317e-15,407.0 A48.5,48.5,0,0,1,2.9697684879323317e-15,504.0" stroke="blue" stroke-width="1" fill="none" />
<path d="M2.1431318985078682e-15,434.0 A35.0,35.0,0,0,1,2.1431318985078682e-15,504.0" stroke="blue" stroke-width="1" fill="none" />
<path d="M8.572527594031472e-16,476.0 A14.0,14.0,0,0,1,8.572527594031472e-16,504.0" stroke="blue" stroke-width="1" fill="none" />
</g>
<g>
<path d="M1.543054966925665e-14,0.0 A252.0,252.0,0,0,1,1.543054966925665e-14,504.0" stroke="orange" stroke-width="1" fill="none" />
<path d="M1.3379266280684834e-14,67.0 A218.5,218.5,0,0,1,1.3379266280684834e-14,504.0" stroke="orange" stroke-width="1" fill="none" />
<path d="M1.2613862031217738e-14,92.0 A206.0,206.0,0,0,1,1.2613862031217738e-14,504.0" stroke="orange" stroke-width="1" fill="none" />
<path d="M1.1848457781750643e-14,117.0 A193.5,193.5,0,0,1,1.1848457781750643e-14,504.0" stroke="orange" stroke-width="1" fill="none" />
<path d="M9.980871413050929e-15,178.0 A163.0,163.0,0,0,1,9.980871413050929e-15,504.0" stroke="orange" stroke-width="1" fill="none" />
<path d="M9.735942053221458e-15,186.0 A159.0,159.0,0,0,1,9.735942053221458e-15,504.0" stroke="orange" stroke-width="1" fill="none" />
<path d="M7.776507174585693e-15,250.0 A127.0,127.0,0,0,1,7.776507174585693e-15,504.0" stroke="orange" stroke-width="1" fill="none" />
<path d="M6.6130927153957075e-15,288.0 A108.0,108.0,0,0,1,6.6130927153957075e-15,504.0" stroke="orange" stroke-width="1" fill="none" />
<path d="M6.031385485800715e-15,307.0 A98.5,98.5,0,0,1,6.031385485800715e-15,504.0" stroke="orange" stroke-width="1" fill="none" />
<path d="M5.296597406312302e-15,331.0 A86.5,86.5,0,0,1,5.296597406312302e-15,504.0" stroke="orange" stroke-width="1" fill="none" />
<path d="M4.133182947122317e-15,369.0 A67.5,67.5,0,0,1,4.133182947122317e-15,504.0" stroke="orange" stroke-width="1" fill="none" />
<path d="M2.326828918379971e-15,428.0 A38.0,38.0,0,0,1,2.326828918379971e-15,504.0" stroke="orange" stroke-width="1" fill="none" />
<path d="M1.43895998899814e-15,457.0 A23.5,23.5,0,0,1,1.43895998899814e-15,504.0" stroke="orange" stroke-width="1" fill="none" />
<path d="M1.111366970226223e-14,94.0 A181.5,181.5,0,0,1,1.111366970226223e-14,457.0" stroke="orange" stroke-width="1" fill="none" />
<path d="M8.572527594031472e-16,476.0 A14.0,14.0,0,0,1,8.572527594031472e-16,504.0" stroke="orange" stroke-width="1" fill="none" />
<path d="M1.2858791391047208e-14,56.0 A210.0,210.0,0,0,1,1.2858791391047208e-14,476.0" stroke="orange" stroke-width="1" fill="none" />
<path d="M1.0287033112837767e-14,140.0 A168.0,168.0,0,0,1,1.0287033112837767e-14,476.0" stroke="orange" stroke-width="1" fill="none" />
</g>
</svg>