<?xml version="1.0" encoding="UTF-8"?>
<svg xmlns="http://www.w3.org/2000/svg" xmlns:xlink="http://www.w3.org/1999/xlink"
     width="360" height="504" viewBox="0 0 360 504">
<defs>
</defs>
<g>
<path d="M0,0 L0,504" stroke="blue" stroke-width="1" />
</g>
<g transform="scale(1,-1) translate(0,-504)">
<path d="M1.5308084989341916e-14,4.0 A250.0,250.0,0,0,1,1.5308084989341916e-14,504.0" stroke="blue" stroke-width="1" fill="none" />
<path d="M1.4022205850237195e-14,46.0 A229.0,229.0,0,0,1,1.4022205850237195e-14,504.0" stroke="blue" stroke-width="1" fill="none" />
<path d="M1.3256801600770099e-14,71.0 A216.5,216.5,0,0,1,1.3256801600770099e-14,504.0" stroke="blue" stroke-width="1" fill="none" />
<path d="M1.1940306291686694e-14,114.0 A195.0,195.0,0,0,1,1.1940306291686694e-14,504.0" stroke="blue" stroke-width="1" fill="none" />
<path d="M1.111366970226223e-14,141.0 A181.5,181.5,0,0,1,1.111366970226223e-14,504.0" stroke="blue" stroke-width="1" fill="none" />
<path d="M1.0348265452795134e-14,166.0 A169.0,169.0,0,0,1,1.0348265452795134e-14,504.0" stroke="blue" stroke-width="1" fill="none" />
<path d="M8.939921633775678e-15,212.0 A146.0,146.0,0,0,1,8.939921633775678e-15,504.0" stroke="blue" stroke-width="1" fill="none" />
<path d="M7.409113134841488e-15,262.0 A121.0,121.0,0,0,1,7.409113134841488e-15,504.0" stroke="blue" stroke-width="1" fill="none" />
<path d="M6.55186037543834e-15,290.0 A107.0,107.0,0,0,1,6.55186037543834e-15,504.0" stroke="blue" stroke-width="1" fill="none" />
<path d="M5.602759106099141e-15,321.0 A91.5,91.5,0,0,1,5.602759106099141e-15,504.0" stroke="blue" stroke-width="1" fill="none" />
<path d="M4.929203366568097e-15,343.0 A80.5,80.5,0,0,1,4.929203366568097e-15,504.0" stroke="blue" stroke-width="1" fill="none" />
<path d="M4.2862637970157365e-15,364.0 A70.0,70.0,0,0,1,4.2862637970157365e-15,504.0" stroke="blue" stroke-width="1" fill="none" />
<path d="M3.061616997868383e-15,404.0 A50.0,50.0,0,0,1,3.061616997868383e-15,504.0" stroke="blue" stroke-width="1" fill="none" />
<path d="M1.6532731788489269e-15,450.0 A27.0,27.0,0,0,1,1.6532731788489269e-15,504.0" stroke="blue" stroke-width="1" fill="none" />
<path d="M1.2858791391047208e-15,462.0 A21.0,21.0,0,0,1,1.2858791391047208e-15,504.0" stroke="blue" stroke-width="1" fill="none" />
</g>
<g>
<path d="M1.543054966925665e-14,0.0 A252.0,252.0,0,0,1,1.543054966925665e-14,504.0" stroke="orange" stroke-width="1" fill="none" />
<path d="M1.3624195640514304e-14,59.0 A222.5,222.5,0,0,1,1.3624195640514304e-14,504.0" stroke="orange" stroke-width="1" fill="none" />
<path d="M1.2950639900983261e-14,81.0 A211.5,211.5,0,0,1,1.2950639900983261e-14,504.0" stroke="orange" stroke-width="1" fill="none" />
<path d="M1.1664760761878539e-14,123.0 A190.5,190.5,0,0,1,1.1664760761878539e-14,504.0" stroke="orange" stroke-width="1" fill="none" />
<path d="M1.1174902042219598e-14,139.0 A182.5,182.5,0,0,1,1.1174902042219598e-14,504.0" stroke="orange" stroke-width="1" fill="none" />
<path d="M1.0042103753008296e-14,176.0 A164.0,164.0,0,0,1,1.0042103753008296e-14,504.0" stroke="orange" stroke-width="1" fill="none" />
<path d="M9.368548013477251e-15,198.0 A153.0,153.0,0,0,1,9.368548013477251e-15,504.0" stroke="orange" stroke-width="1" fill="none" />
<path d="M7.34788079488412e-15,264.0 A120.0,120.0,0,0,1,7.34788079488412e-15,504.0" stroke="orange" stroke-width="1" fill="none" />
<path d="M6.949870585161229e-15,277.0 A113.5,113.5,0,0,1,6.949870585161229e-15,504.0" stroke="orange" stroke-width="1" fill="none" />
<path d="M5.939536975864663e-15,310.0 A97.0,97.0,0,0,1,5.939536975864663e-15,504.0" stroke="orange" stroke-width="1" fill="none" />
<path d="M5.1129003864401995e-15,337.0 A83.5,83.5,0,0,1,5.1129003864401995e-15,504.0" stroke="orange" stroke-width="1" fill="none" />
<path d="M4.071950607164949e-15,371.0 A66.5,66.5,0,0,1,4.071950607164949e-15,504.0" stroke="orange" stroke-width="1" fill="none" />
<path d="M2.541142108230758e-15,421.0 A41.5,41.5,0,0,1,2.541142108230758e-15,504.0" stroke="orange" stroke-width="1" fill="none" />
<path d="M7.807123344564377e-15,166.0 A127.5,127.5,0,0,1,7.807123344564377e-15,421.0" stroke="orange" stroke-width="1" fill="none" />
<path d="M1.959434878635765e-15,440.0 A32.0,32.0,0,0,1,1.959434878635765e-15,504.0" stroke="orange" stroke-width="1" fill="none" />
<path d="M9.552245033349356e-15,128.0 A156.0,156.0,0,0,1,9.552245033349356e-15,440.0" stroke="orange" stroke-width="1" fill="none" />
<path d="M3.67394039744206e-15,320.0 A60.0,60.0,0,0,1,3.67394039744206e-15,440.0" stroke="orange" stroke-width="1" fill="none" />
<path d="M8.266365894244634e-16,477.0 A13.5,13.5,0,0,1,8.266365894244634e-16,504.0" stroke="orange" stroke-width="1" fill="none" />
</g>
</svg>