<?xml version="1.0" encoding="UTF-8"?>
<svg xmlns="http://www.w3.org/2000/svg" xmlns:xlink="http://www.w3.org/1999/xlink"
     width="360" height="504" viewBox="0 0 360 504">
<defs>
</defs>
<g transform="scale(1,-1) translate(0,-504)">
<path d="M1.4726377759746924e-14,23.0 A240.5,240.5,0,0,1,1.4726377759746924e-14,504.0" stroke="blue" stroke-width="1" fill="none" />
<path d="M1.3716044150450356e-14,56.0 A224.0,224.0,0,0,1,1.3716044150450356e-14,504.0" stroke="blue" stroke-width="1" fill="none" />
<path d="M1.2522013521281686e-14,95.0 A204.5,204.5,0,0,1,1.2522013521281686e-14,504.0" stroke="blue" stroke-width="1" fill="none" />
<path d="M1.0776891832496709e-14,152.0 A176.0,176.0,0,0,1,1.0776891832496709e-14,504.0" stroke="blue" stroke-width="1" fill="none" />
<path d="M1.007271992298698e-14,175.0 A164.5,164.5,0,0,1,1.007271992298698e-14,504.0" stroke="blue" stroke-width="1" fill="none" />
<path d="M8.572527594031473e-15,224.0 A140.0,140.0,0,0,1,8.572527594031473e-15,504.0" stroke="blue" stroke-width="1" fill="none" />
<path d="M7.745891004607009e-15,251.0 A126.5,126.5,0,0,1,7.745891004607009e-15,504.0" stroke="blue" stroke-width="1" fill="none" />
<path d="M6.429395695523604e-15,294.0 A105.0,105.0,0,0,1,6.429395695523604e-15,504.0" stroke="blue" stroke-width="1" fill="none" />
<path d="M5.051668046482832e-15,339.0 A82.5,82.5,0,0,1,5.051668046482832e-15,504.0" stroke="blue" stroke-width="1" fill="none" />
<path d="M4.500576986866523e-15,357.0 A73.5,73.5,0,0,1,4.500576986866523e-15,504.0" stroke="blue" stroke-width="1" fill="none" />
<path d="M3.704556567420744e-15,383.0 A60.5,60.5,0,0,1,3.704556567420744e-15,504.0" stroke="blue" stroke-width="1" fill="none" />
<path d="M2.204364238465236e-15,432.0 A36.0,36.0,0,0,1,2.204364238465236e-15,504.0" stroke="blue" stroke-width="1" fill="none" />
<path d="M1.2858791391047208e-15,462.0 A21.0,21.0,0,0,1,1.2858791391047208e-15,504.0" stroke="blue" stroke-width="1" fill="none" />
</g>
</svg>