<?xml version="1.0" encoding="UTF-8"?>
<svg xmlns="http://www.w3.org/2000/svg" xmlns:xlink="http://www.w3.org/1999/xlink"
     width="360" height="504" viewBox="0 0 360 504">
<defs>
</defs>
<g>
<path d="M0,0 L0,504" stroke="orange" stroke-width="1" />
</g>
<g>
<path d="M1.543054966925665e-14,0.0 A252.0,252.0,0,0,1,1.543054966925665e-14,504.0" stroke="orange" stroke-width="1" fill="none" />
<path d="M1.3716044150450356e-14,56.0 A224.0,224.0,0,0,1,1.3716044150450356e-14,504.0" stroke="orange" stroke-width="1" fill="none" />
<path d="M1.2430165011345635e-14,98.0 A203.0,203.0,0,0,1,1.2430165011345635e-14,504.0" stroke="orange" stroke-width="1" fill="none" />
<path d="M1.1725993101835906e-14,121.0 A191.5,191.5,0,0,1,1.1725993101835906e-14,504.0" stroke="orange" stroke-width="1" fill="none" />
<path d="M1.1021821192326179e-14,144.0 A180.0,180.0,0,0,1,1.1021821192326179e-14,504.0" stroke="orange" stroke-width="1" fill="none" />
<path d="M9.460396523413303e-15,195.0 A154.5,154.5,0,0,1,9.460396523413303e-15,504.0" stroke="orange" stroke-width="1" fill="none" />
<path d="M8.603143764010157e-15,223.0 A140.5,140.5,0,0,1,8.603143764010157e-15,504.0" stroke="orange" stroke-width="1" fill="none" />
<path d="M6.674325055353075e-15,286.0 A109.0,109.0,0,0,1,6.674325055353075e-15,504.0" stroke="orange" stroke-width="1" fill="none" />
<path d="M5.75583995599256e-15,316.0 A94.0,94.0,0,0,1,5.75583995599256e-15,504.0" stroke="orange" stroke-width="1" fill="none" />
<path d="M5.174132726397567e-15,335.0 A84.5,84.5,0,0,1,5.174132726397567e-15,504.0" stroke="orange" stroke-width="1" fill="none" />
<path d="M3.7351727373994275e-15,382.0 A61.0,61.0,0,0,1,3.7351727373994275e-15,504.0" stroke="orange" stroke-width="1" fill="none" />
<path d="M2.510525938252074e-15,422.0 A41.0,41.0,0,0,1,2.510525938252074e-15,504.0" stroke="orange" stroke-width="1" fill="none" />
<path d="M1.4083438190194562e-15,458.0 A23.0,23.0,0,0,1,1.4083438190194562e-15,504.0" stroke="orange" stroke-width="1" fill="none" />
<path d="M1.1205518212198282e-14,92.0 A183.0,183.0,0,0,1,1.1205518212198282e-14,458.0" stroke="orange" stroke-width="1" fill="none" />
<path d="M5.204748896376251e-16,487.0 A8.5,8.5,0,0,1,5.204748896376251e-16,504.0" stroke="orange" stroke-width="1" fill="none" />
<path d="M1.3869125000343774e-14,34.0 A226.5,226.5,0,0,1,1.3869125000343774e-14,487.0" stroke="orange" stroke-width="1" fill="none" />
<path d="M1.23077003314309e-14,85.0 A201.0,201.0,0,0,1,1.23077003314309e-14,487.0" stroke="orange" stroke-width="1" fill="none" />
</g>
</svg>