<?xml version="1.0" encoding="UTF-8"?>
<svg xmlns="http://www.w3.org/2000/svg" xmlns:xlink="http://www.w3.org/1999/xlink"
     width="360" height="504" viewBox="0 0 360 504">
<defs>
</defs>
<g transform="scale(1,-1) translate(0,-504)">
<path d="M1.53387011593206e-14,3.0 A250.5,250.5,0,0,1,1.53387011593206e-14,504.0" stroke="blue" stroke-width="1" fill="none" />
<path d="M1.334865011070615e-14,68.0 A218.0,218.0,0,0,1,1.334865011070615e-14,504.0" stroke="blue" stroke-width="1" fill="none" />
<path d="M1.3134336920855364e-14,75.0 A214.5,214.5,0,0,1,1.3134336920855364e-14,504.0" stroke="blue" stroke-width="1" fill="none" />
<path d="M1.1174902042219598e-14,139.0 A182.5,182.5,0,0,1,1.1174902042219598e-14,504.0" stroke="blue" stroke-width="1" fill="none" />
<path d="M1.0103336092965664e-14,174.0 A165.0,165.0,0,0,1,1.0103336092965664e-14,504.0" stroke="blue" stroke-width="1" fill="none" />
<path d="M9.735942053221458e-15,186.0 A159.0,159.0,0,0,1,9.735942053221458e-15,504.0" stroke="blue" stroke-width="1" fill="none" />
<path d="M7.776507174585693e-15,250.0 A127.0,127.0,0,0,1,7.776507174585693e-15,504.0" stroke="blue" stroke-width="1" fill="none" />
<path d="M6.949870585161229e-15,277.0 A113.5,113.5,0,0,1,6.949870585161229e-15,504.0" stroke="blue" stroke-width="1" fill="none" />
<path d="M5.725223786013876e-15,317.0 A93.5,93.5,0,0,1,5.725223786013876e-15,504.0" stroke="blue" stroke-width="1" fill="none" />
<path d="M5.5109105961630896e-15,324.0 A90.0,90.0,0,0,1,5.5109105961630896e-15,504.0" stroke="blue" stroke-width="1" fill="none" />
<path d="M3.67394039744206e-15,384.0 A60.0,60.0,0,0,1,3.67394039744206e-15,504.0" stroke="blue" stroke-width="1" fill="none" />
<path d="M2.9697684879323317e-15,407.0 A48.5,48.5,0,0,1,2.9697684879323317e-15,504.0" stroke="blue" stroke-width="1" fill="none" />
<path d="M1.1327982892113017e-15,467.0 A18.5,18.5,0,0,1,1.1327982892113017e-15,504.0" stroke="blue" stroke-width="1" fill="none" />
<path d="M2.143131898507868e-16,497.0 A3.5,3.5,0,0,1,2.143131898507868e-16,504.0" stroke="blue" stroke-width="1" fill="none" />
</g>
</svg>