<?xml version="1.0" encoding="UTF-8"?>
<svg xmlns="http://www.w3.org/2000/svg" xmlns:xlink="http://www.w3.org/1999/xlink"
     width="360" height="504" viewBox="0 0 360 504">
<defs>
</defs>
<g transform="scale(1,-1) translate(0,-504)">
<path d="M1.4205902870109298e-14,40.0 A232.0,232.0,0,0,1,1.4205902870109298e-14,504.0" stroke="blue" stroke-width="1" fill="none" />
<path d="M1.3471114790620885e-14,64.0 A220.0,220.0,0,0,1,1.3471114790620885e-14,504.0" stroke="blue" stroke-width="1" fill="none" />
<path d="M1.1970922461665378e-14,113.0 A195.5,195.5,0,0,1,1.1970922461665378e-14,504.0" stroke="blue" stroke-width="1" fill="none" />
<path d="M1.0991205022347495e-14,145.0 A179.5,179.5,0,0,1,1.0991205022347495e-14,504.0" stroke="blue" stroke-width="1" fill="none" />
<path d="M8.541911424052789e-15,225.0 A139.5,139.5,0,0,1,8.541911424052789e-15,504.0" stroke="blue" stroke-width="1" fill="none" />
<path d="M7.409113134841488e-15,262.0 A121.0,121.0,0,0,1,7.409113134841488e-15,504.0" stroke="blue" stroke-width="1" fill="none" />
<path d="M6.031385485800715e-15,307.0 A98.5,98.5,0,0,1,6.031385485800715e-15,504.0" stroke="blue" stroke-width="1" fill="none" />
<path d="M5.6639914460565085e-15,319.0 A92.5,92.5,0,0,1,5.6639914460565085e-15,504.0" stroke="blue" stroke-width="1" fill="none" />
<path d="M3.429011037612589e-15,392.0 A56.0,56.0,0,0,1,3.429011037612589e-15,504.0" stroke="blue" stroke-width="1" fill="none" />
<path d="M1.7451216887849782e-15,447.0 A28.5,28.5,0,0,1,1.7451216887849782e-15,504.0" stroke="blue" stroke-width="1" fill="none" />
<path d="M1.592040838891559e-15,452.0 A26.0,26.0,0,0,1,1.592040838891559e-15,504.0" stroke="blue" stroke-width="1" fill="none" />
</g>
</svg>