<?xml version="1.0" encoding="UTF-8"?>
<svg xmlns="http://www.w3.org/2000/svg" xmlns:xlink="http://www.w3.org/1999/xlink"
     width="360" height="504" viewBox="0 0 360 504">
<defs>
</defs>
<g>
<path d="M0,0 L0,504" stroke="orange" stroke-width="1" />
</g>
<g>
<path d="M1.543054966925665e-14,0.0 A252.0,252.0,0,0,1,1.543054966925665e-14,504.0" stroke="orange" stroke-width="1" fill="none" />
<path d="M1.3869125000343774e-14,51.0 A226.5,226.5,0,0,1,1.3869125000343774e-14,504.0" stroke="orange" stroke-width="1" fill="none" />
<path d="M1.2828175221068524e-14,85.0 A209.5,209.5,0,0,1,1.2828175221068524e-14,504.0" stroke="orange" stroke-width="1" fill="none" />
<path d="M1.1450447572027752e-14,130.0 A187.0,187.0,0,0,1,1.1450447572027752e-14,504.0" stroke="orange" stroke-width="1" fill="none" />
<path d="M1.0348265452795134e-14,166.0 A169.0,169.0,0,0,1,1.0348265452795134e-14,504.0" stroke="orange" stroke-width="1" fill="none" />
<path d="M9.674709713264091e-15,188.0 A158.0,158.0,0,0,1,9.674709713264091e-15,504.0" stroke="orange" stroke-width="1" fill="none" />
<path d="M8.205133554287266e-15,236.0 A134.0,134.0,0,0,1,8.205133554287266e-15,504.0" stroke="orange" stroke-width="1" fill="none" />
<path d="M6.949870585161229e-15,277.0 A113.5,113.5,0,0,1,6.949870585161229e-15,504.0" stroke="orange" stroke-width="1" fill="none" />
<path d="M6.306931015608869e-15,298.0 A103.0,103.0,0,0,1,6.306931015608869e-15,504.0" stroke="orange" stroke-width="1" fill="none" />
<path d="M4.5618093268238906e-15,355.0 A74.5,74.5,0,0,1,4.5618093268238906e-15,504.0" stroke="orange" stroke-width="1" fill="none" />
<path d="M3.704556567420744e-15,383.0 A60.5,60.5,0,0,1,3.704556567420744e-15,504.0" stroke="orange" stroke-width="1" fill="none" />
<path d="M2.87791997799628e-15,410.0 A47.0,47.0,0,0,1,2.87791997799628e-15,504.0" stroke="orange" stroke-width="1" fill="none" />
<path d="M1.7145055188062944e-15,448.0 A28.0,28.0,0,0,1,1.7145055188062944e-15,504.0" stroke="orange" stroke-width="1" fill="none" />
<path d="M1.0287033112837767e-14,112.0 A168.0,168.0,0,0,1,1.0287033112837767e-14,448.0" stroke="orange" stroke-width="1" fill="none" />
<path d="M4.286263797015736e-16,490.0 A7.0,7.0,0,0,1,4.286263797015736e-16,504.0" stroke="orange" stroke-width="1" fill="none" />
<path d="M1.414467053015193e-14,28.0 A231.0,231.0,0,0,1,1.414467053015193e-14,490.0" stroke="orange" stroke-width="1" fill="none" />
<path d="M1.2858791391047208e-14,70.0 A210.0,210.0,0,0,1,1.2858791391047208e-14,490.0" stroke="orange" stroke-width="1" fill="none" />
</g>
</svg>