<?xml version="1.0" encoding="UTF-8"?>
<svg xmlns="http://www.w3.org/2000/svg" xmlns:xlink="http://www.w3.org/1999/xlink"
     width="360" height="504" viewBox="0 0 360 504">
<defs>
</defs>
<g transform="scale(1,-1) translate(0,-504)">
<path d="M1.4205902870109298e-14,40.0 A232.0,232.0,0,0,1,1.4205902870109298e-14,504.0" stroke="blue" stroke-width="1" fill="none" />
<path d="M1.310372075087668e-14,76.0 A214.0,214.0,0,0,1,1.310372075087668e-14,504.0" stroke="blue" stroke-width="1" fill="none" />
<path d="M1.190969012170801e-14,115.0 A194.5,194.5,0,0,1,1.190969012170801e-14,504.0" stroke="blue" stroke-width="1" fill="none" />
<path d="M1.0960588852368812e-14,146.0 A179.0,179.0,0,0,1,1.0960588852368812e-14,504.0" stroke="blue" stroke-width="1" fill="none" />
<path d="M9.82779056315751e-15,183.0 A160.5,160.5,0,0,1,9.82779056315751e-15,504.0" stroke="blue" stroke-width="1" fill="none" />
<path d="M8.511295254074105e-15,226.0 A139.0,139.0,0,0,1,8.511295254074105e-15,504.0" stroke="blue" stroke-width="1" fill="none" />
<path d="M6.919254415182545e-15,278.0 A113.0,113.0,0,0,1,6.919254415182545e-15,504.0" stroke="blue" stroke-width="1" fill="none" />
<path d="M4.7148901767173095e-15,350.0 A77.0,77.0,0,0,1,4.7148901767173095e-15,504.0" stroke="blue" stroke-width="1" fill="none" />
<path d="M3.765788907378111e-15,381.0 A61.5,61.5,0,0,1,3.765788907378111e-15,504.0" stroke="blue" stroke-width="1" fill="none" />
<path d="M2.3574450883586548e-15,427.0 A38.5,38.5,0,0,1,2.3574450883586548e-15,504.0" stroke="blue" stroke-width="1" fill="none" />
<path d="M7.347880794884119e-16,480.0 A12.0,12.0,0,0,1,7.347880794884119e-16,504.0" stroke="blue" stroke-width="1" fill="none" />
</g>
</svg>