<?xml version="1.0" encoding="UTF-8"?>
<svg xmlns="http://www.w3.org/2000/svg" xmlns:xlink="http://www.w3.org/1999/xlink"
     width="360" height="504" viewBox="0 0 360 504">
<defs>
</defs>
<g>
<path d="M0,0 L0,504" stroke="orange" stroke-width="1" />
</g>
<g transform="scale(1,-1) translate(0,-504)">
<path d="M1.4573296909853505e-14,28.0 A238.0,238.0,0,0,1,1.4573296909853505e-14,504.0" stroke="blue" stroke-width="1" fill="none" />
<path d="M1.3562963300556937e-14,61.0 A221.5,221.5,0,0,1,1.3562963300556937e-14,504.0" stroke="blue" stroke-width="1" fill="none" />
<path d="M1.2430165011345635e-14,98.0 A203.0,203.0,0,0,1,1.2430165011345635e-14,504.0" stroke="blue" stroke-width="1" fill="none" />
<path d="M1.2093387141580113e-14,109.0 A197.5,197.5,0,0,1,1.2093387141580113e-14,504.0" stroke="blue" stroke-width="1" fill="none" />
<path d="M1.0654427152581974e-14,156.0 A174.0,174.0,0,0,1,1.0654427152581974e-14,504.0" stroke="blue" stroke-width="1" fill="none" />
<path d="M9.58286120332804e-15,191.0 A156.5,156.5,0,0,1,9.58286120332804e-15,504.0" stroke="blue" stroke-width="1" fill="none" />
<path d="M9.246083333562516e-15,202.0 A151.0,151.0,0,0,1,9.246083333562516e-15,504.0" stroke="blue" stroke-width="1" fill="none" />
<path d="M7.623426324692274e-15,255.0 A124.5,124.5,0,0,1,7.623426324692274e-15,504.0" stroke="blue" stroke-width="1" fill="none" />
<path d="M6.490628035480972e-15,292.0 A106.0,106.0,0,0,1,6.490628035480972e-15,504.0" stroke="blue" stroke-width="1" fill="none" />
<path d="M5.541526766141773e-15,323.0 A90.5,90.5,0,0,1,5.541526766141773e-15,504.0" stroke="blue" stroke-width="1" fill="none" />
<path d="M4.31687996699442e-15,363.0 A70.5,70.5,0,0,1,4.31687996699442e-15,504.0" stroke="blue" stroke-width="1" fill="none" />
<path d="M3.4902433775699565e-15,390.0 A57.0,57.0,0,0,1,3.4902433775699565e-15,504.0" stroke="blue" stroke-width="1" fill="none" />
<path d="M2.388061258337339e-15,426.0 A39.0,39.0,0,0,1,2.388061258337339e-15,504.0" stroke="blue" stroke-width="1" fill="none" />
<path d="M1.3471114790620886e-15,460.0 A22.0,22.0,0,0,1,1.3471114790620886e-15,504.0" stroke="blue" stroke-width="1" fill="none" />
<path d="M9.797174393178826e-16,472.0 A16.0,16.0,0,0,1,9.797174393178826e-16,504.0" stroke="blue" stroke-width="1" fill="none" />
</g>
<g>
<path d="M1.543054966925665e-14,0.0 A252.0,252.0,0,0,1,1.543054966925665e-14,504.0" stroke="orange" stroke-width="1" fill="none" />
<path d="M1.3777276490407723e-14,54.0 A225.0,225.0,0,0,1,1.3777276490407723e-14,504.0" stroke="orange" stroke-width="1" fill="none" />
<path d="M1.2338316501409584e-14,101.0 A201.5,201.5,0,0,1,1.2338316501409584e-14,504.0" stroke="orange" stroke-width="1" fill="none" />
<path d="M1.2001538631644062e-14,112.0 A196.0,196.0,0,0,1,1.2001538631644062e-14,504.0" stroke="orange" stroke-width="1" fill="none" />
<path d="M1.0746275662518025e-14,153.0 A175.5,175.5,0,0,1,1.0746275662518025e-14,504.0" stroke="orange" stroke-width="1" fill="none" />
<path d="M8.939921633775678e-15,212.0 A146.0,146.0,0,0,1,8.939921633775678e-15,504.0" stroke="orange" stroke-width="1" fill="none" />
<path d="M7.83773951454306e-15,248.0 A128.0,128.0,0,0,1,7.83773951454306e-15,504.0" stroke="orange" stroke-width="1" fill="none" />
<path d="M7.34788079488412e-15,264.0 A120.0,120.0,0,0,1,7.34788079488412e-15,504.0" stroke="orange" stroke-width="1" fill="none" />
<path d="M6.123233995736766e-15,304.0 A100.0,100.0,0,0,1,6.123233995736766e-15,504.0" stroke="orange" stroke-width="1" fill="none" />
<path d="M4.7148901767173095e-15,350.0 A77.0,77.0,0,0,1,4.7148901767173095e-15,504.0" stroke="orange" stroke-width="1" fill="none" />
<path d="M3.704556567420744e-15,383.0 A60.5,60.5,0,0,1,3.704556567420744e-15,504.0" stroke="orange" stroke-width="1" fill="none" />
<path d="M3.3065463576978537e-15,396.0 A54.0,54.0,0,0,1,3.3065463576978537e-15,504.0" stroke="orange" stroke-width="1" fill="none" />
<path d="M2.0206672185931327e-15,438.0 A33.0,33.0,0,0,1,2.0206672185931327e-15,504.0" stroke="orange" stroke-width="1" fill="none" />
<path d="M9.368548013477251e-15,132.0 A153.0,153.0,0,0,1,9.368548013477251e-15,438.0" stroke="orange" stroke-width="1" fill="none" />
<path d="M9.184850993605148e-17,501.0 A1.5,1.5,0,0,1,9.184850993605148e-17,504.0" stroke="orange" stroke-width="1" fill="none" />
<path d="M1.5155004139448497e-14,6.0 A247.5,247.5,0,0,1,1.5155004139448497e-14,501.0" stroke="orange" stroke-width="1" fill="none" />
<path d="M1.4879458609640343e-14,15.0 A243.0,243.0,0,0,1,1.4879458609640343e-14,501.0" stroke="orange" stroke-width="1" fill="none" />
</g>
</svg>