<?xml version="1.0" encoding="UTF-8"?>
<svg xmlns="http://www.w3.org/2000/svg" xmlns:xlink="http://www.w3.org/1999/xlink"
     width="360" height="504" viewBox="0 0 360 504">
<defs>
</defs>
<g transform="scale(1,-1) translate(0,-504)">
<path d="M1.4573296909853505e-14,28.0 A238.0,238.0,0,0,1,1.4573296909853505e-14,504.0" stroke="blue" stroke-width="1" fill="none" />
<path d="M1.3562963300556937e-14,61.0 A221.5,221.5,0,0,1,1.3562963300556937e-14,504.0" stroke="blue" stroke-width="1" fill="none" />
<path d="M1.2430165011345635e-14,98.0 A203.0,203.0,0,0,1,1.2430165011345635e-14,504.0" stroke="blue" stroke-width="1" fill="none" />
<path d="M1.2093387141580113e-14,109.0 A197.5,197.5,0,0,1,1.2093387141580113e-14,504.0" stroke="blue" stroke-width="1" fill="none" />
<path d="M1.0654427152581974e-14,156.0 A174.0,174.0,0,0,1,1.0654427152581974e-14,504.0" stroke="blue" stroke-width="1" fill="none" />
<path d="M9.58286120332804e-15,191.0 A156.5,156.5,0,0,1,9.58286120332804e-15,504.0" stroke="blue" stroke-width="1" fill="none" />
<path d="M9.246083333562516e-15,202.0 A151.0,151.0,0,0,1,9.246083333562516e-15,504.0" stroke="blue" stroke-width="1" fill="none" />
<path d="M7.623426324692274e-15,255.0 A124.5,124.5,0,0,1,7.623426324692274e-15,504.0" stroke="blue" stroke-width="1" fill="none" />
<path d="M6.490628035480972e-15,292.0 A106.0,106.0,0,0,1,6.490628035480972e-15,504.0" stroke="blue" stroke-width="1" fill="none" />
<path d="M5.541526766141773e-15,323.0 A90.5,90.5,0,0,1,5.541526766141773e-15,504.0" stroke="blue" stroke-width="1" fill="none" />
<path d="M4.31687996699442e-15,363.0 A70.5,70.5,0,0,1,4.31687996699442e-15,504.0" stroke="blue" stroke-width="1" fill="none" />
<path d="M3.4902433775699565e-15,390.0 A57.0,57.0,0,0,1,3.4902433775699565e-15,504.0" stroke="blue" stroke-width="1" fill="none" />
<path d="M2.388061258337339e-15,426.0 A39.0,39.0,0,0,1,2.388061258337339e-15,504.0" stroke="blue" stroke-width="1" fill="none" />
<path d="M1.3471114790620886e-15,460.0 A22.0,22.0,0,0,1,1.3471114790620886e-15,504.0" stroke="blue" stroke-width="1" fill="none" />
<path d="M9.797174393178826e-16,472.0 A16.0,16.0,0,0,1,9.797174393178826e-16,504.0" stroke="blue" stroke-width="1" fill="none" />
</g>
</svg>