<?xml version="1.0" encoding="UTF-8"?>
<svg xmlns="http://www.w3.org/2000/svg" xmlns:xlink="http://www.w3.org/1999/xlink"
     width="360" height="504" viewBox="0 0 360 504">
<defs>
</defs>
<g>
<path d="M0,0 L0,504" stroke="orange" stroke-width="1" />
</g>
<g>
<path d="M1.543054966925665e-14,0.0 A252.0,252.0,0,0,1,1.543054966925665e-14,504.0" stroke="orange" stroke-width="1" fill="none" />
<path d="M1.3777276490407723e-14,54.0 A225.0,225.0,0,0,1,1.3777276490407723e-14,504.0" stroke="orange" stroke-width="1" fill="none" />
<path d="M1.2338316501409584e-14,101.0 A201.5,201.5,0,0,1,1.2338316501409584e-14,504.0" stroke="orange" stroke-width="1" fill="none" />
<path d="M1.2001538631644062e-14,112.0 A196.0,196.0,0,0,1,1.2001538631644062e-14,504.0" stroke="orange" stroke-width="1" fill="none" />
<path d="M1.0746275662518025e-14,153.0 A175.5,175.5,0,0,1,1.0746275662518025e-14,504.0" stroke="orange" stroke-width="1" fill="none" />
<path d="M8.939921633775678e-15,212.0 A146.0,146.0,0,0,1,8.939921633775678e-15,504.0" stroke="orange" stroke-width="1" fill="none" />
<path d="M7.83773951454306e-15,248.0 A128.0,128.0,0,0,1,7.83773951454306e-15,504.0" stroke="orange" stroke-width="1" fill="none" />
<path d="M7.34788079488412e-15,264.0 A120.0,120.0,0,0,1,7.34788079488412e-15,504.0" stroke="orange" stroke-width="1" fill="none" />
<path d="M6.123233995736766e-15,304.0 A100.0,100.0,0,0,1,6.123233995736766e-15,504.0" stroke="orange" stroke-width="1" fill="none" />
<path d="M4.7148901767173095e-15,350.0 A77.0,77.0,0,0,1,4.7148901767173095e-15,504.0" stroke="orange" stroke-width="1" fill="none" />
<path d="M3.704556567420744e-15,383.0 A60.5,60.5,0,0,1,3.704556567420744e-15,504.0" stroke="orange" stroke-width="1" fill="none" />
<path d="M3.3065463576978537e-15,396.0 A54.0,54.0,0,0,1,3.3065463576978537e-15,504.0" stroke="orange" stroke-width="1" fill="none" />
<path d="M2.0206672185931327e-15,438.0 A33.0,33.0,0,0,1,2.0206672185931327e-15,504.0" stroke="orange" stroke-width="1" fill="none" />
<path d="M9.368548013477251e-15,132.0 A153.0,153.0,0,0,1,9.368548013477251e-15,438.0" stroke="orange" stroke-width="1" fill="none" />
<path d="M9.184850993605148e-17,501.0 A1.5,1.5,0,0,1,9.184850993605148e-17,504.0" stroke="orange" stroke-width="1" fill="none" />
<path d="M1.5155004139448497e-14,6.0 A247.5,247.5,0,0,1,1.5155004139448497e-14,501.0" stroke="orange" stroke-width="1" fill="none" />
<path d="M1.4879458609640343e-14,15.0 A243.0,243.0,0,0,1,1.4879458609640343e-14,501.0" stroke="orange" stroke-width="1" fill="none" />
</g>
</svg>