<?xml version="1.0" encoding="UTF-8"?><svg id="art" xmlns="http://www.w3.org/2000/svg" viewBox="0 0 360 504"><defs><style>.cls-1{stroke:#f8b169;}.cls-1,.cls-2{fill:none;stroke-miterlimit:10;stroke-width:.6px;}.cls-2{stroke:#5e428c;}</style></defs><path class="cls-2" d="M22.53,21.67c16.7,0,30.23,13.54,30.23,30.23s-13.54,30.23-30.23,30.23"/><path class="cls-2" d="M22.53,21.67c21.96,0,39.76,17.8,39.76,39.76s-17.8,39.76-39.76,39.76"/><path class="cls-2" d="M22.53,21.67c27.22,0,49.29,22.07,49.29,49.29s-22.07,49.29-49.29,49.29"/><path class="cls-2" d="M22.52,21.67c37.75,0,68.35,30.6,68.35,68.35s-30.6,68.35-68.35,68.35"/><path class="cls-2" d="M22.52,21.67c48.28,0,87.41,39.14,87.41,87.41s-39.14,87.41-87.41,87.41"/><path class="cls-2" d="M22.52,21.67c53.54,0,96.94,43.4,96.94,96.94s-43.4,96.94-96.94,96.94"/><path class="cls-2" d="M22.51,21.67c58.8,0,106.47,47.67,106.47,106.47s-47.67,106.47-106.47,106.47"/><path class="cls-2" d="M22.51,21.67c64.07,0,116,51.94,116,116s-51.94,116-116,116"/><path class="cls-2" d="M22.51,21.67c74.59,0,135.06,60.47,135.06,135.06s-60.47,135.06-135.06,135.06"/><path class="cls-2" d="M22.5,21.67c79.86,0,144.59,64.74,144.59,144.59S102.36,310.86,22.5,310.86"/><path class="cls-2" d="M22.5,21.67c85.12,0,154.12,69,154.12,154.12S107.62,329.92,22.5,329.92"/><path class="cls-2" d="M22.5,21.67c100.91,0,182.71,81.8,182.71,182.71S123.4,387.1,22.5,387.1"/><path class="cls-2" d="M22.49,21.67c106.17,0,192.24,86.07,192.24,192.24s-86.07,192.24-192.24,192.24"/><path class="cls-2" d="M22.49,21.67c116.7,0,211.3,94.6,211.3,211.3s-94.6,211.3-211.3,211.3"/><path class="cls-2" d="M22.48,21.67c127.22,0,230.36,103.14,230.36,230.36s-103.14,230.36-230.36,230.36"/><path class="cls-1" d="M22.53,482.39c16.7,0,30.23-13.54,30.23-30.23,0-16.7-13.54-30.23-30.23-30.23"/><path class="cls-1" d="M22.53,482.39c32.49,0,58.82-26.34,58.82-58.82,0-32.49-26.34-58.82-58.82-58.82"/><path class="cls-1" d="M22.52,482.39c43.01,0,77.88-34.87,77.88-77.88,0-43.01-34.87-77.88-77.88-77.88"/><path class="cls-1" d="M22.52,482.39c48.28,0,87.41-39.14,87.41-87.41,0-48.28-39.14-87.41-87.41-87.41"/><path class="cls-1" d="M22.52,482.39c53.54,0,96.94-43.4,96.94-96.94,0-53.54-43.4-96.94-96.94-96.94"/><path class="cls-1" d="M22.51,422.05c58.8,0,106.47-47.67,106.47-106.47,0-58.8-47.67-106.47-106.47-106.47"/><path class="cls-1" d="M22.51,482.39c69.33,0,125.53-56.2,125.53-125.53,0-69.33-56.2-125.53-125.53-125.53"/><path class="cls-1" d="M22.5,364.75c79.86,0,144.59-64.74,144.59-144.59,0-79.86-64.74-144.59-144.59-144.59"/><path class="cls-1" d="M22.5,482.39c85.12,0,154.12-69,154.12-154.12S107.62,174.15,22.5,174.15"/><path class="cls-1" d="M22.5,482.39c90.38,0,163.65-73.27,163.65-163.65,0-90.38-73.27-163.65-163.65-163.65"/><path class="cls-1" d="M22.5,421.93c95.65,0,173.18-77.54,173.18-173.18,0-95.65-77.54-173.18-173.18-173.18"/><path class="cls-1" d="M22.5,482.39c100.91,0,182.71-81.8,182.71-182.71S123.4,116.97,22.5,116.97"/><path class="cls-1" d="M22.49,482.39c111.43,0,201.77-90.34,201.77-201.77,0-111.43-90.34-201.77-201.77-201.77"/><path class="cls-1" d="M22.49,482.39c116.7,0,211.3-94.6,211.3-211.3S139.19,59.79,22.49,59.79"/><path class="cls-1" d="M22.48,482.39c127.22,0,230.36-103.14,230.36-230.36S149.71,21.67,22.48,21.67"/><line class="cls-1" x1="22.48" y1="21.67" x2="22.48" y2="482.39"/></svg>